HIERARCHY
ROOT Hips
{
	OFFSET 0.00000 0.00000 0.00000
	CHANNELS 6 Xposition Yposition Zposition Zrotation Yrotation Xrotation 
	JOINT LHipJoint
	{
		OFFSET 0 0 0
		CHANNELS 3 Zrotation Yrotation Xrotation
		JOINT LeftUpLeg
		{
			OFFSET 1.09156 -1.61406 0.76500
			CHANNELS 3 Zrotation Yrotation Xrotation
			JOINT LeftLeg
			{
				OFFSET 2.33750 -6.42225 0.00000
				CHANNELS 3 Zrotation Yrotation Xrotation
				JOINT LeftFoot
				{
					OFFSET 2.49247 -6.84800 0.00000
					CHANNELS 3 Zrotation Yrotation Xrotation
					JOINT LeftToeBase
					{
						OFFSET 0.15312 -0.42069 1.45461
						CHANNELS 3 Zrotation Yrotation Xrotation
						End Site
						{
							OFFSET 0.00000 -0.00000 0.77046
						}
					}
				}
			}
		}
	}
	JOINT RHipJoint
	{
		OFFSET 0 0 0
		CHANNELS 3 Zrotation Yrotation Xrotation
		JOINT RightUpLeg
		{
			OFFSET -0.99883 -1.61406 0.76500
			CHANNELS 3 Zrotation Yrotation Xrotation
			JOINT RightLeg
			{
				OFFSET -2.36877 -6.50815 0.00000
				CHANNELS 3 Zrotation Yrotation Xrotation
				JOINT RightFoot
				{
					OFFSET -2.53452 -6.96353 0.00000
					CHANNELS 3 Zrotation Yrotation Xrotation
					JOINT RightToeBase
					{
						OFFSET -0.13156 -0.36145 1.63237
						CHANNELS 3 Zrotation Yrotation Xrotation
						End Site
						{
							OFFSET -0.00000 -0.00000 0.84979
						}
					}
				}
			}
		}
	}
	JOINT LowerBack
	{
		OFFSET 0 0 0
		CHANNELS 3 Zrotation Yrotation Xrotation
		JOINT Spine
		{
			OFFSET -0.02431 1.98242 -0.13616
			CHANNELS 3 Zrotation Yrotation Xrotation
			JOINT Spine1
			{
				OFFSET 0.03629 1.98974 -0.02954
				CHANNELS 3 Zrotation Yrotation Xrotation
				JOINT Neck
				{
					OFFSET 0 0 0
					CHANNELS 3 Zrotation Yrotation Xrotation
					JOINT Neck1
					{
						OFFSET 0.09349 1.40783 0.22333
						CHANNELS 3 Zrotation Yrotation Xrotation
						JOINT Head
						{
							OFFSET -0.04273 1.44500 -0.06495
							CHANNELS 3 Zrotation Yrotation Xrotation
							End Site
							{
								OFFSET -0.02251 1.44600 -0.04544
							}
						}
					}
				}
				JOINT LeftShoulder
				{
					OFFSET 0 0 0
					CHANNELS 3 Zrotation Yrotation Xrotation
					JOINT LeftArm
					{
						OFFSET 3.49137 0.85126 -0.29740
						CHANNELS 3 Zrotation Yrotation Xrotation
						JOINT LeftForeArm
						{
							OFFSET 5.06035 -0.00000 0.00000
							CHANNELS 3 Zrotation Yrotation Xrotation
							JOINT LeftHand
							{
								OFFSET 3.14780 -0.00000 0.00000
								CHANNELS 3 Zrotation Yrotation Xrotation
								JOINT LeftFingerBase
								{
									OFFSET 0 0 0
									CHANNELS 3 Zrotation Yrotation Xrotation
									JOINT LeftHandIndex1
									{
										OFFSET 0.60675 -0.00000 0.00000
										CHANNELS 3 Zrotation Yrotation Xrotation
										End Site
										{
											OFFSET 0.48918 -0.00000 0.00000
										}
									}
								}
								JOINT LThumb
								{
									OFFSET 0 0 0
									CHANNELS 3 Zrotation Yrotation Xrotation
									End Site
									{
										OFFSET 0.49664 -0.00000 0.49664
									}
								}
							}
						}
					}
				}
				JOINT RightShoulder
				{
					OFFSET 0 0 0
					CHANNELS 3 Zrotation Yrotation Xrotation
					JOINT RightArm
					{
						OFFSET -3.28101 0.69707 0.00747
						CHANNELS 3 Zrotation Yrotation Xrotation
						JOINT RightForeArm
						{
							OFFSET -5.12273 -0.00000 -0.00000
							CHANNELS 3 Zrotation Yrotation Xrotation
							JOINT RightHand
							{
								OFFSET -3.42200 -0.00000 0.00000
								CHANNELS 3 Zrotation Yrotation Xrotation
								JOINT RightFingerBase
								{
									OFFSET 0 0 0
									CHANNELS 3 Zrotation Yrotation Xrotation
									JOINT RightHandIndex1
									{
										OFFSET -0.70460 -0.00000 0.00000
										CHANNELS 3 Zrotation Yrotation Xrotation
										End Site
										{
											OFFSET -0.56807 -0.00000 0.00000
										}
									}
								}
								JOINT RThumb
								{
									OFFSET 0 0 0
									CHANNELS 3 Zrotation Yrotation Xrotation
									End Site
									{
										OFFSET -0.57674 -0.00000 0.57674
									}
								}
							}
						}
					}
				}
			}
		}
	}
}
MOTION
Frames: 16
Frame Time: 0.125
0.00 0.00 0.00 0 0 0 0 0 0 -21 0 0 0 0 0 0 0 0 0 0 0 0 0 0 21 0 0 0 0 0 0 0 0 0 0 0 0 0 0 0 0 0 0 0 0 0 0 -16 0 0 21 0 0 11 0 0 0 -8 0 0 0 0 0 0 0 0 0 0 0 0 0 0 0 0 0 0 0 0 8 0 0 0 0 0 0 0 0 0 0 0 0 0 0 0 0 0
0.00 0.00 0.00 531.7070 99.1115 537.8800 0.0000 0.0000 0.0000 -24.4412 2.9540 -8.7374 2.3345 9.5307 27.4699 1.9186 9.1233 -30.7743 0.0715 1.7250 4.7462 0.0000 0.0000 0.0000 7.8370 13.0982 -13.2833 -4.1075 -12.3022 36.8094 -0.4724 -2.9502 -14.3977 -0.0003 -0.1181 0.3244 -2.9402 -2.5004 -5.4712 1.2859 -3.1793 -0.6391 2.7253 -1.6176 2.6396 -2.5008 -3.0767 -1.3144 -1.0930 -4.0331 0.9897 0.0404 -2.0296 0.5407 0.0000 -0.0000 0.0000 -93.0709 -7.1845 7.8272 3.5287 -6.0850 -0.1876 -0.0000 -0.0000 24.0066 17.6561 43.9924 12.4663 -7.1250 0.0000 -0.0000 -34.1050 72.9107 -23.2975 0.0000 -0.0000 0.0000 88.8292 -3.4625 -9.9692 -5.1896 8.9040 -0.4043 0.0000 0.0000 28.9759 -27.7669 32.1118 -15.6356 7.1250 -0.0000 -0.0000 2.2792 5.3416 2.4834
0.00 0.00 0.00 532.3260 99.7263 538.9680 0.0000 0.0000 0.0000 -25.4613 3.0776 -6.6110 1.9222 8.7020 24.8676 1.5397 10.8581 -29.5739 0.0124 0.7177 1.9724 0.0000 0.0000 0.0000 7.6222 13.6138 -24.0733 -8.1611 -16.2364 53.1407 -0.1768 -1.3522 -8.5571 -0.0652 -1.6478 4.5332 -3.4154 -3.6946 -4.6162 1.6954 -4.7865 -0.1862 3.3096 -2.4407 2.8172 -1.6605 -2.3724 -0.9502 -0.7661 -3.1476 -1.0433 0.0320 -1.5640 -0.1471 -0.0000 0.0000 0.0000 -92.2224 -8.9250 15.4472 5.9319 -10.1484 -0.5272 -0.0000 -0.0000 16.3980 12.4728 46.3341 9.0907 -7.1250 0.0000 -0.0000 -45.1303 72.6860 -31.3414 -0.0000 0.0000 0.0000 89.1775 -8.5270 -13.2081 -4.8988 8.4137 -0.3606 0.0000 0.0000 30.7665 -29.7669 32.3022 -16.9950 7.1250 -0.0000 -0.0000 1.2040 6.0801 1.3251
0.00 0.00 0.00 537.2250 102.5110 547.6910 0.0000 0.0000 0.0000 -25.6535 5.8956 3.2700 0.3475 3.7875 10.4795 0.7028 6.2025 -19.2868 0.1693 -2.6507 -7.3078 0.0000 0.0000 0.0000 13.0081 18.6274 -34.7345 -2.2194 -9.3089 26.7665 -0.5630 2.7110 -13.5060 -0.0042 0.4176 -1.1473 -4.7930 -5.2441 -3.0079 2.0900 -6.8702 -0.0995 4.4362 -3.5001 2.3973 0.5779 -1.3829 -1.7263 -0.3572 -1.8445 -2.8266 -0.2013 -0.9199 -0.5821 0.0000 -0.0000 0.0000 -91.4104 -9.4144 21.6915 7.5331 -12.7933 -0.8457 -0.0000 -0.0000 9.6227 16.7955 43.9353 11.8282 -7.1250 0.0000 -0.0000 -34.9374 72.5606 -23.6492 0.0000 -0.0000 0.0000 90.3570 -9.6076 -15.0507 -3.3870 5.8426 -0.1729 0.0000 0.0000 30.5048 -28.8187 31.4126 -16.0004 7.1250 -0.0000 -0.0000 1.5577 4.8865 1.6853
0.00 0.00 0.00 530.8160 98.4482 542.0490 0.0000 0.0000 0.0000 -21.2008 8.9525 17.4990 0.0000 -0.0000 -0.0000 0.0309 1.0202 -3.8621 0.0018 -0.2776 -0.7628 0.0000 0.0000 0.0000 16.8265 17.0272 -32.5139 -2.0433 -8.9557 25.6569 -0.0829 1.8169 -5.1117 -0.0436 -1.3477 3.7060 -2.1869 -4.8989 -3.9617 3.7287 -6.5118 0.0221 4.6252 -3.3048 2.9181 -1.2917 -2.0193 -1.5958 0.7127 -2.6436 -3.8888 0.4367 -1.3008 -0.8952 0.0000 -0.0000 0.0000 -95.9211 -5.8623 17.9141 6.4067 -10.9387 -0.6141 -0.0000 -0.0000 12.1064 15.5615 43.9547 10.9398 -7.1250 0.0000 -0.0000 -36.3303 72.1394 -24.3417 0.0000 -0.0000 0.0000 87.8772 -6.7848 -18.0822 -5.1342 8.8106 -0.3958 0.0000 0.0000 36.0535 -27.0009 33.7913 -15.8224 7.1250 -0.0000 -0.0000 3.0238 6.8842 3.3689
0.00 0.00 0.00 516.8890 94.5430 526.3000 0.0000 0.0000 0.0000 -19.3718 5.6316 13.9104 0.7631 5.5786 15.5666 0.0261 -1.7386 4.1966 0.2591 3.2751 9.0456 0.0000 0.0000 0.0000 19.2459 14.6662 -27.3733 -2.5036 -9.8445 28.4747 -0.2782 -0.7217 -10.2520 -0.0003 0.1077 -0.2958 -1.4848 -4.8444 -2.8856 4.3259 -6.4908 0.9335 4.9088 -3.3025 3.2504 -2.6607 -3.3943 -1.4044 1.5185 -4.4598 -3.3704 0.9088 -2.2034 -0.7037 -0.0000 0.0000 0.0000 -95.1183 -4.7404 23.6091 7.8274 -13.2727 -0.9121 -0.0000 -0.0000 4.4414 13.8084 44.4786 9.7707 -7.1250 0.0000 -0.0000 -39.3517 71.9056 -26.3468 -0.0000 0.0000 0.0000 87.1776 -3.3164 -7.7511 -5.7784 9.8920 -0.5005 0.0000 0.0000 27.9724 -26.6775 33.0559 -15.3266 7.1250 -0.0000 -0.0000 3.0617 6.0411 3.3715
0.00 0.00 0.00 465.0290 94.4952 473.8610 0.0000 0.0000 0.0000 -15.0412 3.5577 5.2888 3.5452 11.5293 34.0864 0.1078 -2.9457 8.0095 1.2226 7.0132 19.7544 0.0000 0.0000 0.0000 24.0184 11.7286 -22.0414 -2.0151 -8.8976 25.4754 -0.3227 -2.0610 -11.6867 -0.0072 0.5484 -1.5069 1.0955 -4.2671 -2.9572 5.0485 -5.7971 0.9218 4.2712 -2.8925 3.0257 -3.0530 -4.7398 -0.6443 1.4052 -6.2915 -2.0082 0.9299 -3.1296 -0.3644 0.0000 -0.0000 0.0000 -93.4532 -4.2317 24.8201 7.9238 -13.4292 -0.9343 -0.0000 -0.0000 6.1405 15.8325 43.5861 11.0626 -7.1250 0.0000 -0.0000 -35.2363 71.9584 -23.4234 0.0000 -0.0000 0.0000 86.8402 -2.1642 4.6563 -7.3958 12.5688 -0.8156 0.0000 0.0000 18.3061 -24.3779 34.2837 -14.3194 7.1250 -0.0000 -0.0000 4.5504 6.7303 5.0675
0.00 0.00 0.00 417.7600 94.7214 425.3490 0.0000 0.0000 0.0000 -13.6998 0.1381 -5.5212 7.7713 15.9484 51.7347 -0.0200 -3.6100 4.0779 2.3409 9.5426 27.5079 0.0000 0.0000 0.0000 25.8406 6.2026 -16.3385 -1.4385 -7.5827 21.4535 -0.3893 -2.7271 -13.1037 -0.0074 0.5564 -1.5291 0.9069 -3.9190 -2.1949 4.5732 -5.3036 1.2375 3.9555 -2.6490 2.8587 -3.4431 -5.3505 -0.2179 1.4019 -7.1221 -1.5393 0.9934 -3.5476 -0.2591 0.0000 0.0000 0.0000 -91.5850 -4.3699 17.5617 7.6742 -13.0234 -0.8773 -0.0000 -0.0000 6.7432 15.7388 42.0898 10.6972 -7.1250 0.0000 -0.0000 -32.3408 70.7680 -20.5603 0.0000 0.0000 0.0000 86.1793 1.8919 16.6201 -9.6814 16.2396 -1.3845 0.0000 0.0000 10.2298 -25.1441 33.0995 -14.3767 7.1250 -0.0000 -0.0000 3.9181 5.7038 4.2977
0.00 0.00 0.00 405.8270 96.3095 411.4820 0.0000 0.0000 0.0000 -12.4109 -5.5518 -21.9949 9.8620 17.3315 59.0261 -0.0666 -17.2000 -11.4355 0.0164 0.8256 2.2690 0.0000 0.0000 0.0000 28.2591 -0.0462 -10.3416 -1.3785 -7.4295 20.9943 -0.9576 -1.0501 -18.8974 -0.0001 -0.0740 0.2034 1.4488 -2.2443 -1.1438 3.6772 -3.0576 2.0797 2.8628 -1.5102 2.9064 -3.1626 -4.6746 -1.3821 1.0238 -6.1831 0.8067 0.7685 -3.0934 0.6073 0.0000 0.0000 0.0000 -89.6479 -1.9350 7.1885 6.8104 -11.6068 -0.6930 -0.0000 -0.0000 11.0438 17.8018 40.8701 11.8658 -7.1250 0.0000 -0.0000 -27.7907 70.4617 -17.3302 0.0000 0.0000 0.0000 84.0819 9.8507 26.8457 -13.7941 22.4396 -2.7490 0.0000 0.0000 3.0387 -26.4776 32.1044 -14.8271 7.1250 -0.0000 -0.0000 2.9982 5.0050 3.2527
0.00 0.00 0.00 430.4760 94.2584 437.6360 0.0000 0.0000 0.0000 -13.0065 -8.9677 -36.4116 3.0596 10.7910 31.5782 0.3001 -14.2136 -13.1794 0.0307 1.1316 3.1109 0.0000 0.0000 0.0000 28.1959 -1.9045 2.0673 -0.1792 -2.7269 7.5192 -0.9208 -0.9300 -18.4900 -0.0104 0.6576 -1.8071 2.2764 1.2200 -0.6262 1.2246 1.5832 1.9302 0.0246 0.8299 2.3580 -3.9408 -5.0622 -2.2048 3.0950 -6.6838 0.5997 1.5196 -3.3263 0.8053 0.0000 0.0000 0.0000 -86.8747 1.6690 -9.7162 7.0290 -11.9669 -0.7376 -0.0000 -0.0000 17.7944 14.9686 43.6631 10.4586 -7.1250 0.0000 -0.0000 -36.3392 71.7156 -24.0273 0.0000 0.0000 0.0000 85.5597 17.9162 22.8634 -17.1784 27.0923 -4.1682 0.0000 -0.0000 -0.0868 -28.3639 33.1007 -16.4275 7.1250 -0.0000 -0.0000 2.1398 6.5304 2.3709
0.00 0.00 0.00 508.0340 94.6554 514.3930 0.0000 0.0000 0.0000 -15.4930 -8.1092 -34.5953 2.7218 10.2304 29.7261 0.1664 -4.1625 -7.3768 0.0348 1.2047 3.3123 0.0000 0.0000 0.0000 21.7371 -3.5605 22.5111 0.0000 0.0000 -0.0000 -0.0150 3.8658 -3.3111 -0.2421 3.1667 -8.7432 0.7311 2.7322 -2.7998 -0.5996 3.6435 2.0498 -0.8041 1.8439 3.7629 -4.0307 -1.9379 -4.4893 2.9943 -2.4915 6.3836 1.5810 -1.2268 2.9377 -0.0000 0.0000 0.0000 -87.6736 3.3679 -26.4417 4.6416 -7.9787 -0.3239 -0.0000 -0.0000 34.8282 14.0041 44.7598 9.9604 -7.1250 0.0000 -0.0000 -39.7898 72.1734 -26.8854 -0.0000 0.0000 0.0000 93.3464 12.8958 14.5712 -13.4158 21.8934 -2.6063 0.0000 0.0000 5.2784 -26.8596 33.5036 -15.6184 7.1250 -0.0000 -0.0000 3.0460 6.5506 3.3781
0.00 0.00 0.00 517.2890 92.7990 522.4700 0.0000 0.0000 0.0000 -18.6597 -6.1454 -31.4407 2.9391 10.5958 30.9284 0.2990 -7.3833 -10.3048 0.0180 0.8670 2.3829 0.0000 0.0000 0.0000 20.2605 -3.9708 18.7835 -0.4711 -4.4023 12.2114 0.0666 4.7370 3.0504 -0.0262 -1.0441 2.8700 -0.2762 1.8247 -2.4917 -1.3439 2.4977 1.7434 -1.0945 1.2594 3.2366 -2.9461 -1.4887 -5.1088 3.7166 -2.0334 8.8266 1.6644 -0.9204 3.8796 0.0000 -0.0000 0.0000 -86.9858 3.2200 -22.4810 4.2951 -7.3912 -0.2776 -0.0000 -0.0000 33.9111 14.0331 44.6747 9.9668 -7.1250 0.0000 -0.0000 -39.5642 72.1235 -26.6791 0.0000 -0.0000 0.0000 94.6127 8.7707 12.0678 -11.5158 19.0745 -1.9411 0.0000 0.0000 7.6589 -26.3109 33.5622 -15.2890 7.1250 -0.0000 -0.0000 3.3587 6.4702 3.7218
0.00 0.00 0.00 564.7640 92.9593 569.4680 0.0000 0.0000 0.0000 -22.3003 -4.0548 -28.3482 2.8892 10.5135 30.6563 0.4311 -9.2031 -12.4816 0.1982 2.8669 7.9084 0.0000 0.0000 0.0000 17.2098 -2.3553 10.5676 -2.8666 -10.4760 30.5322 -0.0068 5.8128 8.4852 -0.5125 -4.5886 12.7388 -2.8587 1.0863 -3.0217 -1.8777 1.6642 1.7210 -0.2322 0.7957 3.4429 -2.2614 -0.9158 -6.8287 4.3043 -1.4088 11.2824 1.6151 -0.5018 4.5439 -0.0000 0.0000 0.0000 -86.8979 1.7800 -19.2859 4.2984 -7.3967 -0.2780 -0.0000 -0.0000 33.6055 13.6823 44.6898 9.7153 -7.1250 0.0000 -0.0000 -39.9605 72.0108 -26.8777 -0.0000 0.0000 0.0000 94.2974 6.6687 9.4114 -8.7119 14.7002 -1.1259 0.0000 0.0000 12.9331 -25.9013 33.7936 -15.1146 7.1250 -0.0000 -0.0000 3.6268 6.6045 4.0275
0.00 0.00 0.00 603.4680 94.2139 606.7600 0.0000 0.0000 0.0000 -26.4530 -1.1837 -22.8190 2.3846 9.6249 27.7704 0.5919 -10.6131 -14.5878 0.0446 1.3629 3.7480 0.0000 0.0000 0.0000 13.7883 -0.5826 2.8320 -6.7658 -15.1314 47.9828 -0.2973 6.4651 14.6657 -0.1856 -2.7747 7.6521 -5.0562 0.0205 -1.8197 -2.6011 0.3170 1.9228 0.1681 0.1020 2.9953 -0.4422 -0.2093 -7.4610 3.8333 -0.6224 11.8224 1.2210 -0.0503 4.7850 -0.0000 0.0000 0.0000 -86.0494 -1.8442 -15.3243 4.0194 -6.9222 -0.2432 -0.0000 -0.0000 33.2853 14.5852 44.8516 10.3990 -7.1250 0.0000 -0.0000 -39.4019 72.4441 -26.8191 -0.0000 0.0000 0.0000 93.9571 4.9880 -4.2995 -5.3719 9.2105 -0.4330 0.0000 0.0000 31.7919 -26.3893 34.5766 -15.7262 7.1250 -0.0000 -0.0000 3.5098 7.5331 3.9466
0.00 0.00 0.00 719.4320 94.7406 724.2120 0.0000 0.0000 0.0000 -20.1392 3.0969 8.3908 2.7085 10.2076 29.6516 -0.9825 -17.4770 3.3856 0.6982 5.3412 14.8844 0.0000 0.0000 0.0000 21.1728 10.2933 -25.3328 -2.6537 -10.1122 29.3407 -0.2449 -2.2495 -10.4525 -0.1718 -2.6700 7.3613 -4.0984 -5.3283 -3.6896 2.5423 -6.9915 0.8401 4.3916 -3.5999 3.7433 5.0404 0.9387 -6.1110 0.0623 0.8227 13.9997 -0.7517 0.7240 5.2452 0.0000 -0.0000 0.0000 -93.5025 -17.9971 4.4255 6.4091 -10.9427 -0.6145 -0.0000 -0.0000 20.0001 17.3460 45.2900 12.5155 -7.1250 0.0000 -0.0000 -37.5525 73.7546 -26.4660 0.0000 -0.0000 0.0000 89.4054 -1.8523 -8.9261 -6.0240 10.3022 -0.5435 0.0000 0.0000 28.1964 -24.1051 33.3523 -13.8198 7.1250 -0.0000 -0.0000 4.5371 5.7139 4.9812
0.00 0.00 0.00 1101.6800 99.0703 1103.8400 0.0000 0.0000 0.0000 -14.0988 -0.7606 3.0675 6.7689 15.1342 47.9948 -0.6643 -15.1439 11.1103 0.6476 5.1478 14.3307 0.0000 0.0000 0.0000 26.7414 3.9669 -13.4424 -1.5348 -7.8212 22.1723 -0.2692 -3.4647 -11.7039 -0.0204 0.9227 -2.5362 -0.9905 -5.4277 -4.3162 3.6389 -7.2064 -1.1971 3.8516 -3.5933 1.7658 2.5576 -1.3260 -7.9704 -0.3175 -2.0277 11.2214 -0.6405 -0.8851 4.6434 -0.0000 0.0000 0.0000 -95.0243 -9.2004 -13.1504 2.2683 -3.9217 -0.0777 -0.0000 -0.0000 34.3808 17.8354 46.8250 13.2049 -7.1250 0.0000 -0.0000 -41.2232 74.9939 -30.2682 -0.0000 0.0000 0.0000 90.0037 -3.2544 0.5526 -8.1993 13.8754 -0.9994 0.0000 0.0000 16.3030 -24.7348 30.2883 -13.0804 7.1250 -0.0000 -0.0000 3.6787 2.7043 3.8560
